<svg width="101" height="100" viewBox="0 0 101 100" fill="none" xmlns="http://www.w3.org/2000/svg">
<g clip-path="url(#clip0_468_2107)">
<path d="M100.25 34.69C100.25 18.8229 87.4271 6 71.56 6C63.1651 6 55.5083 9.59777 50.25 15.4096C44.9917 9.59777 37.4271 6 28.94 6C13.0729 6 0.25 18.8229 0.25 34.69C0.25 43.0849 3.84778 50.7417 9.65959 56H9.56734L40.8404 87.2731C43.9769 90.4096 47.1135 93.5461 50.25 93.5461C53.3865 93.5461 56.5231 90.4096 59.6596 87.2731L90.9327 56H90.8404C96.56 50.7417 100.25 43.0849 100.25 34.69Z" fill="#242239"/>
<path d="M93.608 53.0479H72.5748C71.3755 53.0479 70.2685 52.4021 69.715 51.3874L60.6744 35.428L47.298 65.8708C46.8368 66.8855 46.0065 67.6236 44.8995 67.8081C44.715 67.8081 44.4383 67.9003 44.2538 67.9003C43.4235 67.9003 42.5932 67.5313 41.9475 66.9778L25.0656 50.6494H5.04712C6.33863 52.5867 7.90689 54.4317 9.65966 55.9999H9.56741L40.8405 87.273C43.977 90.4095 47.1135 93.5461 50.2501 93.5461C53.3866 93.5461 56.5231 90.4095 59.6597 87.273L90.9327 55.9999H90.8405C91.8552 55.0774 92.7777 54.0627 93.608 53.0479Z" fill="#F88AF3"/>
<path d="M2.55627 44.0074H26.4493C27.2795 44.0074 28.1098 44.3764 28.7555 44.9299L43.2389 58.8598L57.2611 26.6642C57.7223 25.5572 58.8293 24.7269 60.1209 24.7269C61.3201 24.6347 62.5194 25.2805 63.1651 26.3875L74.512 46.4059H97.7592C99.3275 42.8081 100.25 38.8413 100.25 34.69C100.25 18.8229 87.4271 6 71.56 6C63.1651 6 55.5083 9.59777 50.25 15.4096C44.9917 9.59777 37.4271 6 28.94 6C13.0729 6 0.25 18.8229 0.25 34.69C0.25 38.0111 0.803506 41.1476 1.81827 44.0996C2.09502 44.0074 2.27952 44.0074 2.55627 44.0074Z" fill="#F88AF3"/>
</g>
<defs>
<clipPath id="clip0_468_2107">
<rect width="100" height="100" fill="white" transform="translate(0.25)"/>
</clipPath>
</defs>
</svg>
