<svg width="32" height="32" viewBox="0 0 32 32" fill="none" xmlns="http://www.w3.org/2000/svg">
<path d="M20.9999 11.0501C20.8683 11.0509 20.7379 11.0257 20.616 10.9759C20.4942 10.9261 20.3834 10.8528 20.2899 10.7601C20.1962 10.6672 20.1218 10.5566 20.071 10.4347C20.0203 10.3128 19.9941 10.1821 19.9941 10.0501C19.9941 9.91811 20.0203 9.7874 20.071 9.66554C20.1218 9.54368 20.1962 9.43308 20.2899 9.34012C21.0768 8.52866 22.0376 7.90637 23.0999 7.52012C23.5642 7.30773 24.0798 7.23346 24.5852 7.30616C25.0906 7.37886 25.5643 7.59547 25.9499 7.93012C26.0546 8.01977 26.1396 8.13008 26.1997 8.25415C26.2597 8.37821 26.2934 8.51335 26.2987 8.65107C26.3041 8.78878 26.2808 8.92612 26.2306 9.05444C26.1803 9.18277 26.104 9.29931 26.0066 9.39677C25.9091 9.49422 25.7926 9.57048 25.6643 9.62076C25.5359 9.67103 25.3986 9.69424 25.2609 9.68892C25.1232 9.6836 24.988 9.64987 24.864 9.58984C24.7399 9.52982 24.6296 9.4448 24.5399 9.34012C24.5399 9.34012 24.2699 9.23012 23.7299 9.41012C22.9729 9.70915 22.2904 10.1699 21.7299 10.7601C21.6341 10.8552 21.5201 10.93 21.3946 10.9798C21.2691 11.0296 21.1349 11.0536 20.9999 11.0501Z" fill="#87AF41"/>
<path d="M16.85 10.22C17.3314 11.0232 17.9164 11.7595 18.59 12.41C19.2405 13.0836 19.9768 13.6686 20.78 14.15C21.5203 14.6073 22.2137 15.1365 22.85 15.73C23.2864 14.6631 23.4063 13.4931 23.1952 12.3599C22.9842 11.2267 22.4512 10.1783 21.66 9.34001C20.8218 8.54881 19.7733 8.01582 18.6401 7.80478C17.5069 7.59375 16.3369 7.7136 15.27 8.15001C15.8635 8.78633 16.3928 9.4797 16.85 10.22Z" fill="#9AD14B"/>
<path d="M19.71 15.8502C18.7817 15.2942 17.9282 14.6221 17.17 13.8502C16.3981 13.0919 15.726 12.2384 15.17 11.3102C14.7014 10.5269 14.1333 9.80754 13.48 9.17017C13.2226 9.367 12.9788 9.58081 12.75 9.81017C10.94 11.6102 4.74996 20.6802 7.52996 23.5102C7.80797 23.7615 8.13343 23.9547 8.48721 24.0783C8.84099 24.202 9.21593 24.2536 9.58996 24.2302C13.39 24.2302 19.75 19.7702 21.23 18.2902C21.4593 18.0614 21.6731 17.8175 21.87 17.5602C21.2276 16.8984 20.5015 16.3235 19.71 15.8502Z" fill="#F95428"/>
</svg>
